<?xml version="1.0" standalone="no"?>
<!DOCTYPE svg PUBLIC "-//W3C//DTD SVG 20010904//EN"
 "http://www.w3.org/TR/2001/REC-SVG-20010904/DTD/svg10.dtd">
<svg version="1.0" xmlns="http://www.w3.org/2000/svg"
 width="500.000000pt" height="500.000000pt" viewBox="0 0 500.000000 500.000000"
 preserveAspectRatio="xMidYMid meet">
<metadata>
Created by potrace 1.14, written by Peter Selinger 2001-2017
</metadata>
<g transform="translate(0.000000,500.000000) scale(0.100000,-0.100000)"
fill="#000000" stroke="none">
<path d="M686 4395 c-21 -14 -55 -34 -77 -46 -22 -11 -49 -29 -59 -39 -20 -20
-20 -46 -20 -1825 0 -1708 1 -1805 17 -1813 10 -6 41 -13 70 -17 51 -7 53 -8
76 -58 51 -111 132 -167 252 -175 62 -4 78 -1 122 21 60 31 117 94 136 151 11
32 19 42 39 44 22 3 26 -1 31 -36 4 -21 16 -47 27 -57 52 -47 263 -70 405 -44
89 16 231 77 272 115 l36 34 207 0 208 0 6 -24 c3 -14 26 -37 52 -55 76 -50
149 -72 264 -81 58 -4 206 -17 330 -29 l225 -22 335 31 c433 40 445 42 475 70
23 21 39 76 47 154 2 16 10 32 18 36 40 19 179 60 201 60 62 0 219 118 219
165 0 22 -236 454 -280 513 -20 26 -54 57 -75 69 -46 25 -142 43 -232 43 -54
0 -69 4 -108 32 -37 26 -54 32 -102 32 -32 1 -77 -3 -100 -7 l-43 -9 0 200 c0
180 2 200 18 215 25 23 29 22 37 -12 11 -52 79 -101 140 -101 54 0 90 23 113
74 12 24 30 47 41 51 39 12 63 55 60 110 -1 31 5 65 16 90 14 32 16 48 8 77
-7 26 -6 42 3 60 18 32 17 111 -2 156 -8 20 -28 51 -44 67 l-29 30 14 215 c15
232 22 284 38 315 5 11 43 54 84 97 87 91 127 169 144 278 24 153 -30 311
-145 426 -65 65 -115 94 -160 94 -13 0 -26 -7 -30 -15 -3 -9 9 -74 28 -145 18
-70 30 -133 27 -139 -17 -26 -210 -44 -212 -18 0 6 -1 72 -2 146 -2 173 -3
173 -139 103 -5 -2 -8 82 -8 187 0 178 -1 192 -20 211 -20 20 -33 20 -1469 20
l-1448 0 -37 -25z m1014 -224 c0 -181 -2 -220 -14 -224 -27 -11 -948 -7 -967
4 -18 9 -19 25 -19 206 0 169 2 199 17 215 15 17 44 18 500 18 l483 0 0 -219z
m1110 -1 l0 -220 -25 -6 c-40 -10 -243 2 -340 21 -107 20 -332 16 -430 -9 -74
-19 -275 -22 -293 -4 -13 13 -18 391 -6 422 6 14 63 16 550 16 l544 0 0 -220z
m814 204 c13 -13 16 -46 16 -209 0 -175 -2 -195 -18 -204 -18 -10 -777 -20
-786 -10 -5 4 -9 326 -7 422 1 16 26 17 390 17 341 0 392 -2 405 -16z m-2931
-441 c5 -4 232 -10 505 -13 l497 -5 3 -41 c3 -40 2 -41 -60 -79 -88 -54 -272
-241 -339 -345 -96 -149 -161 -318 -189 -492 -15 -95 -8 -350 13 -423 l14 -50
-78 -75 c-87 -85 -127 -155 -136 -242 -10 -99 34 -189 120 -244 35 -23 46 -37
51 -63 7 -43 32 -71 65 -71 24 0 26 -3 26 -50 0 -44 4 -54 40 -91 41 -43 124
-89 161 -89 20 0 21 -6 28 -207 3 -115 9 -223 12 -241 l6 -32 -218 2 -218 3
-28 135 c-20 98 -27 152 -23 195 4 46 1 68 -12 94 -66 126 -251 93 -270 -48
-4 -28 2 -52 21 -93 14 -30 26 -64 26 -76 0 -18 18 -117 35 -188 4 -20 0 -22
-58 -28 -35 -4 -76 -4 -90 -1 l-27 7 0 1598 0 1599 53 28 52 28 5 -197 c3
-108 9 -200 13 -205z m3373 57 c24 -17 44 -33 44 -36 0 -3 -5 -2 -12 2 -7 4
-2 -6 10 -23 12 -17 39 -66 59 -109 31 -64 37 -91 41 -158 2 -45 -1 -99 -7
-121 -8 -30 -8 -41 2 -48 8 -5 5 -6 -8 -3 -11 3 -41 10 -68 17 -33 8 -54 20
-69 41 -39 56 -137 83 -205 57 -33 -12 -83 -58 -83 -75 0 -15 -67 -27 -130
-22 -44 3 -45 4 -63 53 -13 37 -16 72 -14 135 4 89 21 137 74 207 23 30 107
93 124 93 4 0 5 -56 2 -125 -7 -144 1 -171 52 -181 42 -7 199 20 231 40 36 24
32 56 -32 269 -7 24 1 22 52 -13z m-1546 -80 c168 -47 284 -104 408 -198 360
-274 530 -743 428 -1181 -8 -35 -17 -65 -20 -68 -2 -2 -14 5 -25 16 -14 14
-21 34 -21 60 0 31 -6 44 -26 60 -25 20 -25 22 -14 76 15 72 15 253 0 334 -57
314 -256 578 -545 723 -318 160 -695 136 -992 -62 -132 -88 -289 -284 -356
-446 -60 -142 -85 -392 -53 -529 13 -53 13 -60 -2 -72 -10 -7 -20 -13 -24 -13
-4 0 -11 -14 -15 -31 -6 -20 -21 -37 -45 -51 -21 -12 -40 -20 -42 -17 -12 12
-36 190 -36 268 0 443 251 851 645 1049 85 42 215 87 299 102 90 16 351 4 436
-20z m1630 5 c13 -14 21 -25 18 -25 -2 0 -15 11 -28 25 -13 14 -21 25 -18 25
2 0 15 -11 28 -25z m-2347 -31 c-43 -19 -82 -34 -86 -34 -5 0 -7 15 -5 33 l3
32 75 5 c41 3 79 3 83 1 5 -1 -27 -18 -70 -37z m1007 -4 l0 -38 -80 36 c-44
20 -80 39 -80 42 0 3 36 4 80 2 l80 -4 0 -38z m738 -26 c-72 -155 -41 -337 88
-507 l44 -57 0 -300 0 -300 -33 -13 c-47 -20 -94 -79 -112 -141 -14 -46 -20
-54 -45 -59 -31 -7 -60 -48 -60 -86 0 -31 -17 -33 -37 -5 -19 26 -19 27 5 118
29 109 41 338 23 452 -26 171 -101 360 -201 510 -67 100 -223 256 -317 318
-72 47 -73 48 -73 92 l0 44 374 0 375 0 -31 -66z m-913 -164 c3 -6 -1 -7 -9
-4 -18 7 -21 14 -7 14 6 0 13 -4 16 -10z m-150 -48 c53 -18 56 -20 27 -21 -50
-1 -72 -17 -72 -51 0 -46 23 -52 173 -45 l132 7 65 -54 c84 -71 131 -129 185
-230 79 -149 119 -344 101 -490 -6 -49 -10 -55 -27 -51 -10 3 -19 9 -19 14 0
5 6 6 14 3 11 -4 14 5 14 40 0 25 -4 46 -9 46 -5 0 -10 26 -10 58 -1 31 -4 47
-6 34 -2 -12 -9 -20 -14 -17 -5 4 -9 -3 -9 -15 0 -12 -4 -19 -9 -16 -5 3 -11
-16 -14 -42 -3 -30 -1 -50 6 -54 8 -5 7 -8 -4 -8 -9 0 -16 -7 -16 -15 0 -19 7
-19 34 0 20 14 21 13 16 -5 -3 -12 -14 -20 -28 -20 -26 0 -45 -20 -74 -77 -16
-33 -80 -199 -96 -250 -7 -21 -173 -28 -615 -27 -294 0 -444 4 -462 12 -17 7
-30 23 -38 49 -7 21 -36 88 -66 149 -61 125 -84 148 -145 142 -50 -5 -53 3
-52 152 1 131 28 241 88 365 18 39 36 82 40 96 4 14 16 35 28 46 12 12 55 53
95 93 64 63 77 71 100 66 15 -3 66 -9 114 -12 98 -8 118 0 118 47 0 31 -22 48
-62 50 -21 1 -20 2 8 14 110 48 367 57 489 17z m225 18 c13 -9 13 -10 0 -10
-8 0 -22 5 -30 10 -13 9 -13 10 0 10 8 0 22 -5 30 -10z m173 -108 c133 -101
258 -308 298 -492 34 -157 20 -390 -24 -390 -4 0 -5 17 -1 38 16 79 8 283 -15
367 -28 106 -100 253 -160 329 -56 70 -175 187 -208 205 -13 6 -23 16 -23 21
0 12 61 -24 133 -78z m1374 36 c-2 -13 -4 -5 -4 17 -1 22 1 32 4 23 2 -10 2
-28 0 -40z m-353 -64 c-6 -22 -4 -25 12 -22 11 2 18 11 18 21 -2 20 15 22 40
4 17 -12 17 -14 2 -20 -24 -10 -21 -41 4 -34 16 4 20 0 20 -17 0 -29 -10 -39
-26 -25 -11 9 -15 7 -21 -7 -4 -10 -2 -19 5 -22 7 -2 10 -8 6 -13 -8 -13 -42
-11 -47 4 -3 9 -8 9 -21 -2 -14 -12 -19 -12 -29 -1 -9 10 -9 13 1 17 13 5 17
33 4 33 -4 0 -13 -5 -19 -11 -7 -7 -12 -3 -17 17 -4 15 -2 32 3 37 8 8 11 7
11 -1 0 -7 7 -12 15 -12 19 0 20 29 0 36 -22 9 2 34 43 43 1 1 -1 -11 -4 -25z
m336 -31 c-11 -17 -11 -17 -6 0 3 10 7 28 7 40 2 22 2 22 6 0 2 -12 -1 -30 -7
-40z m-537 -20 c32 -4 50 -11 54 -22 31 -106 96 -156 191 -149 92 6 152 65
152 146 0 23 1 24 18 10 9 -9 27 -19 40 -22 12 -4 22 -12 22 -18 0 -6 -33 -45
-73 -88 -97 -100 -124 -157 -142 -296 -8 -60 -15 -126 -15 -146 0 -37 -1 -38
-39 -38 l-39 0 -7 103 c-8 117 -34 229 -64 278 -26 43 -26 36 0 -54 27 -94 40
-327 17 -327 -11 0 -16 33 -25 158 -6 86 -19 181 -27 209 -9 29 -45 94 -80
145 -77 114 -85 133 -54 124 13 -4 45 -9 71 -13z m347 -83 c-17 -31 -70 -60
-110 -59 l-35 1 38 8 c45 8 88 37 102 68 5 12 11 18 13 13 2 -6 -2 -19 -8 -31z
m-308 -218 c13 -58 19 -474 7 -486 -3 -4 -14 -4 -23 0 -14 5 -16 35 -16 281 0
167 4 272 9 268 5 -3 16 -31 23 -63z m117 -349 c-36 -4 -36 -5 -43 -56 -3 -29
-6 -67 -6 -85 0 -20 -4 -31 -10 -27 -11 7 -13 61 -4 129 l7 46 46 -2 c41 -1
42 -2 10 -5z m-2286 -170 c38 -43 125 -250 202 -478 23 -72 -35 60 -84 187
-96 253 -131 305 -190 288 -43 -12 -121 -48 -121 -56 0 -3 7 -3 16 0 8 3 13 2
10 -2 -3 -5 11 -30 30 -57 19 -27 32 -55 30 -62 -3 -7 -1 -13 4 -13 6 0 9 -3
8 -7 -1 -5 3 -17 9 -29 6 -11 8 -25 5 -31 -4 -7 -23 19 -45 60 -20 40 -51 87
-67 106 -17 19 -27 38 -23 42 4 4 35 21 68 38 68 35 124 40 148 14z m1544 -8
c28 -15 57 -33 64 -41 7 -9 -16 -1 -53 17 -93 45 -108 40 -148 -58 -28 -67
-93 -244 -147 -403 -18 -52 -38 -79 -30 -40 8 40 135 399 163 459 45 100 65
108 151 66z m641 -19 c35 -18 78 -65 86 -93 13 -42 -9 -63 -65 -63 -27 0 -66
7 -86 15 -20 8 -38 13 -40 11 -4 -4 29 -31 61 -51 14 -9 16 -24 10 -117 -4
-63 -11 -108 -17 -108 -6 0 -21 10 -34 22 -33 31 -28 9 7 -32 16 -19 29 -40
30 -46 0 -6 -18 -27 -40 -48 l-40 -37 -45 42 c-67 62 -99 135 -100 228 l0 76
28 3 c19 2 33 -3 41 -14 11 -14 14 -7 19 49 9 93 37 142 97 169 25 11 59 9 88
-6z m291 -73 c19 -41 25 -117 12 -141 -14 -26 -68 -42 -138 -42 -45 0 -55 4
-69 25 -15 23 -14 26 22 70 36 43 79 65 127 65 11 0 17 8 17 25 0 33 14 32 29
-2z m-2680 -52 c33 -47 100 -207 81 -196 -6 3 -10 13 -10 21 0 26 -17 6 -25
-28 -4 -18 -7 -37 -6 -41 1 -5 -3 -6 -8 -3 -5 3 -14 -1 -21 -9 -16 -20 -29
-19 -54 3 -20 16 -20 16 -7 0 16 -22 9 -23 -27 -4 -15 7 -49 16 -77 20 l-50 6
40 -17 c47 -19 95 -51 95 -63 0 -4 -11 -11 -24 -14 -38 -9 -118 -94 -150 -158
-16 -32 -31 -58 -34 -58 -19 0 -77 60 -98 102 -21 40 -25 62 -22 98 12 119
121 247 291 341 65 36 81 36 106 0z m1962 -197 c-31 -27 -45 -49 -57 -90 -17
-59 -12 -87 6 -38 13 35 51 76 104 115 48 36 56 36 56 2 0 -39 51 -144 93
-190 35 -38 35 -39 15 -52 -11 -7 -52 -21 -91 -32 -71 -19 -71 -19 -20 -14 29
3 73 14 98 25 55 23 59 18 8 -9 -70 -35 -142 -44 -218 -26 -71 16 -106 31
-102 43 1 4 -12 21 -30 37 -26 24 -36 45 -50 110 -19 84 -20 140 -1 114 7 -11
9 -8 5 8 -3 13 -1 26 4 29 5 3 9 14 9 24 0 10 12 47 27 81 l27 62 79 -82 79
-82 -41 -35z m-1812 32 c-3 -3 -11 5 -18 17 -13 21 -12 21 5 5 10 -10 16 -20
13 -22z m2519 12 c19 -19 15 -82 -7 -102 -24 -22 -86 -37 -122 -29 -39 8 -69
39 -69 72 0 38 19 52 82 61 80 11 103 11 116 -2z m-252 -60 c-4 -29 -7 -104
-9 -165 -2 -96 -4 -110 -15 -95 -9 12 -12 35 -8 77 3 33 8 99 12 148 3 48 11
87 16 87 5 0 7 -22 4 -52z m-969 7 c-8 -17 -13 -20 -15 -10 -2 10 -16 15 -42
15 -38 0 -62 -14 -38 -22 7 -3 -73 -13 -178 -23 -148 -14 -236 -17 -404 -12
-207 6 -360 22 -360 38 0 4 -3 15 -7 25 -6 16 2 17 103 10 133 -8 667 -7 824
3 63 3 118 5 122 4 3 -2 1 -14 -5 -28z m-1377 -78 c-37 -39 -37 -39 -69 -23
-32 17 -43 30 -16 20 8 -4 17 1 21 10 3 9 11 16 16 16 6 0 5 -6 -2 -15 -12
-15 -6 -35 12 -35 5 0 8 7 4 15 -3 8 0 14 7 12 7 -1 11 5 9 13 -2 8 0 12 4 8
11 -12 34 12 35 36 0 20 1 20 9 1 6 -16 0 -28 -30 -58z m264 -9 c35 -49 8
-108 -49 -108 -42 0 -66 20 -67 56 -2 51 17 74 62 74 29 0 43 -6 54 -22z
m1290 3 c30 -33 -6 -108 -54 -111 -43 -4 -48 -1 -59 30 -11 33 -7 55 17 83 20
23 74 22 96 -2z m1024 -23 c19 -19 14 -63 -11 -86 -28 -27 -94 -37 -127 -20
-48 26 -56 83 -16 110 18 13 141 9 154 -4z m-2640 -50 c19 -19 14 -38 -10 -39
-13 0 3 -9 36 -20 76 -26 140 -70 173 -120 21 -32 25 -47 20 -84 -11 -102
-113 -248 -182 -261 -57 -10 -145 38 -145 81 0 32 7 34 48 14 39 -20 97 -25
107 -9 3 6 -4 10 -16 10 -35 0 -101 37 -129 73 -19 23 -25 43 -25 79 0 55 -7
61 -25 19 -8 -20 -21 -32 -42 -36 -16 -4 -32 -4 -36 -1 -14 14 -4 104 17 152
44 102 166 185 209 142z m1832 -95 c0 -7 -39 17 -46 28 -3 6 5 3 20 -6 14 -10
26 -19 26 -22z m-729 -29 c16 -20 16 -91 0 -107 -6 -6 -30 -13 -53 -16 l-43
-6 -3 -144 c-3 -158 -2 -161 55 -161 43 0 67 -34 58 -83 -10 -53 -35 -59 -230
-55 -187 3 -195 7 -195 78 0 44 15 60 55 60 62 0 66 10 63 165 l-3 139 -45 9
c-59 12 -70 22 -70 68 0 66 8 69 214 69 157 0 185 -2 197 -16z m1159 -201 l0
-198 -32 -18 c-31 -18 -31 -18 -121 19 -133 53 -196 55 -307 10 -13 -5 -16 15
-19 138 -3 135 -2 146 18 173 l22 29 72 -24 c95 -32 184 -27 279 16 36 16 68
35 72 41 4 6 9 11 12 11 2 0 4 -89 4 -197z m-1957 57 c-8 -36 -18 -83 -23
-105 -22 -100 -56 -178 -139 -315 -28 -46 -46 -87 -41 -90 4 -3 18 -82 30
-175 11 -94 23 -180 26 -192 5 -26 -16 -32 -34 -10 -13 15 -41 274 -40 361 1
51 6 68 36 115 63 98 145 304 167 421 7 31 24 65 30 58 2 -2 -4 -32 -12 -68z
m-429 -106 c3 -8 3 -27 0 -41 -8 -31 -24 -12 -24 30 0 29 14 36 24 11z m2139
-165 c50 -13 65 -46 34 -73 l-22 -19 35 7 c32 6 33 5 15 -7 -11 -8 -45 -22
-75 -31 -30 -10 -75 -29 -101 -42 -97 -49 -126 -54 -321 -60 -104 -3 -188 -2
-188 3 0 11 82 63 140 90 25 11 74 28 110 37 36 9 105 37 154 61 95 48 143 55
219 34z m462 -8 c22 -10 74 -53 115 -96 41 -42 87 -85 102 -94 27 -17 14 -18
-340 -24 -202 -3 -383 -3 -402 2 l-35 7 35 19 c19 10 60 26 90 35 31 9 101 45
155 80 143 91 203 106 280 71z m-3070 -50 c-69 -31 -83 -67 -52 -137 16 -38
40 -143 92 -397 l26 -128 -44 -49 c-87 -96 -85 -198 3 -287 40 -41 27 -43 -21
-3 -46 37 -72 91 -71 147 1 53 21 97 69 153 l36 42 -47 237 c-27 130 -57 253
-67 273 -23 45 -24 70 -4 108 17 34 58 59 95 59 21 1 19 -2 -15 -18z m3338 -5
c95 -11 150 -56 212 -171 21 -38 78 -144 128 -233 63 -115 86 -167 79 -174 -8
-8 -13 -3 -18 16 -3 14 -10 26 -15 26 -4 0 -43 71 -86 158 l-78 157 -3 -106
c-4 -151 33 -278 89 -306 21 -11 21 -13 5 -19 -9 -4 -44 -4 -77 -1 -69 6 -93
23 -120 82 -19 43 -39 204 -39 317 0 41 -6 80 -14 97 -21 40 -79 88 -142 118
-30 14 -54 29 -54 33 0 11 29 18 60 14 14 -2 46 -5 73 -8z m-3300 -83 c9 -9
-13 -34 -24 -27 -14 8 -11 34 4 34 8 0 17 -3 20 -7z m2932 -133 c-93 -4 -376
-11 -628 -15 -494 -9 -486 -8 -472 -62 6 -27 6 -27 -14 -9 -27 25 -27 61 1 80
20 14 97 16 653 14 422 -1 574 -4 460 -8z m-955 -160 c0 -6 11 -113 25 -238
14 -125 27 -254 31 -287 3 -33 8 -69 11 -80 5 -19 4 -19 -12 -3 -18 16 -21 40
-79 566 -5 42 -3 52 9 52 8 0 15 -5 15 -10z m-502 -77 c-16 -2 -40 -2 -55 0
-16 2 -3 4 27 4 30 0 43 -2 28 -4z m-1552 -31 c6 -4 17 -42 24 -85 13 -75 12
-78 -9 -98 -31 -29 -68 -91 -79 -130 -8 -33 -10 -34 -58 -34 l-49 0 -3 174 -2
174 60 -6 c37 -4 60 -3 60 3 0 12 40 13 56 2z m677 0 c17 -4 16 -6 -4 -28 -20
-21 -21 -31 -16 -104 3 -44 2 -80 -2 -80 -19 0 -92 -75 -110 -114 -18 -35 -26
-42 -44 -39 -17 3 -26 17 -39 61 -20 69 -72 133 -132 161 -40 20 -45 26 -59
81 -8 32 -12 62 -9 65 6 6 388 3 415 -3z m921 -33 c3 -17 1 -39 -4 -49 -20
-37 11 -123 55 -158 20 -16 25 -29 25 -66 l0 -46 -200 0 -200 0 0 43 c0 41 2
45 38 61 52 24 76 67 78 141 2 106 1 105 108 105 l94 0 6 -31z m-811 -89 c134
-47 369 -53 476 -11 69 26 77 22 13 -7 -84 -39 -182 -51 -379 -49 l-182 2 -6
35 c-4 19 -9 46 -12 60 -6 24 -5 25 14 7 11 -10 45 -26 76 -37z m927 -12 c19
-5 89 -13 155 -18 l120 -8 -146 2 -145 3 23 -25 c28 -31 23 -39 -15 -23 -16 7
-36 27 -45 47 -21 44 -21 48 1 39 9 -4 33 -12 52 -17z m-855 -132 c13 -8 35
-30 48 -48 25 -32 50 -105 42 -118 -5 -8 -89 -26 -160 -35 -60 -7 -185 11
-204 30 -18 18 -8 72 22 116 53 79 174 106 252 55z m1093 -3 c-41 -43 -68 -92
-68 -123 0 -25 -14 -22 -94 19 -44 22 -51 31 -54 59 -3 30 -2 32 31 32 19 0
48 3 65 6 l31 6 -19 -38 c-11 -21 -20 -45 -20 -54 0 -8 9 3 19 25 28 60 67 89
141 104 2 1 -12 -16 -32 -36z m-996 6 c29 -16 67 -60 74 -86 3 -13 13 -23 20
-23 17 0 7 24 -31 76 l-23 30 61 -13 c34 -7 83 -13 110 -13 76 0 58 -22 -60
-73 l-108 -46 -12 41 c-6 22 -26 58 -43 79 -31 39 -27 49 12 28z m1073 -95 c6
-52 10 -96 8 -98 -6 -5 -107 16 -120 26 -6 5 -10 15 -8 21 2 7 6 25 10 40 6
29 84 122 94 112 3 -3 10 -49 16 -101z m-1782 12 c9 -7 17 -15 17 -17 0 -3
-25 -5 -55 -6 -51 -1 -54 1 -44 18 11 22 55 25 82 5z m967 -12 c0 -55 -195
-140 -345 -151 -83 -5 -225 10 -253 27 -12 8 -6 8 23 3 61 -11 214 -8 265 6
52 14 270 100 285 113 10 9 25 11 25 2z m705 -99 c28 -8 66 -17 87 -20 45 -7
61 -35 20 -35 -93 0 -260 59 -281 98 -20 38 -11 38 57 5 37 -18 90 -40 117
-48z m-1660 28 c-4 -10 -11 -47 -15 -83 -4 -36 -8 -54 -9 -39 0 14 -14 45 -29
70 -15 24 -31 50 -36 57 -5 9 6 12 44 12 46 0 51 -2 45 -17z"/>
<path d="M890 4172 c0 -4 14 -16 30 -25 17 -10 30 -25 31 -33 4 -69 2 -77 -32
-105 l-34 -28 319 -1 319 0 -41 30 c-38 27 -41 33 -40 75 0 32 5 46 17 50 9 3
27 14 41 25 25 20 25 20 -292 20 -175 0 -318 -4 -318 -8z"/>
<path d="M2210 4315 c-7 -8 -18 -15 -25 -15 -18 0 -73 -65 -81 -96 -14 -54 3
-107 45 -146 37 -35 45 -38 98 -38 80 0 122 23 152 83 41 83 8 162 -85 203
-63 28 -87 30 -104 9z m58 -7 c5 -7 18 -39 27 -70 12 -43 13 -62 5 -77 -25
-47 -86 -51 -115 -7 -13 20 -13 28 -1 63 33 94 58 121 84 91z m-92 -68 c-21
-53 -20 -92 2 -120 36 -45 144 -20 158 36 6 24 4 38 -11 79 l-8 20 16 -20 c21
-26 21 -79 1 -110 -19 -30 -78 -48 -125 -38 -31 6 -33 5 -20 -10 19 -24 97
-22 139 3 51 31 66 93 37 150 -9 17 -13 30 -11 30 12 0 36 -61 36 -90 0 -74
-58 -124 -144 -123 -57 1 -93 23 -119 75 -22 44 -14 84 25 133 37 44 46 39 24
-15z"/>
<path d="M1898 4313 c-34 -8 -8 -32 28 -26 21 3 40 1 49 -7 19 -16 39 -1 30
22 -6 14 -65 21 -107 11z"/>
<path d="M2555 4300 c-10 -16 5 -31 26 -25 27 9 82 -11 109 -40 14 -15 24 -41
28 -72 4 -44 15 -62 35 -63 4 0 7 24 7 53 0 94 -61 157 -152 157 -26 0 -50 -4
-53 -10z"/>
<path d="M1852 4288 c2 -6 10 -14 16 -16 7 -2 10 2 6 12 -7 18 -28 22 -22 4z"/>
<path d="M2463 4239 c-10 -37 -9 -41 14 -56 21 -14 26 -14 34 -2 5 8 9 22 9
31 0 9 5 20 11 24 9 5 -35 44 -51 44 -3 0 -11 -18 -17 -41z"/>
<path d="M2663 4064 c-3 -8 -1 -20 5 -26 12 -12 32 -2 31 15 0 9 -2 9 -6 0 -2
-7 -9 -13 -14 -13 -14 0 -11 28 4 33 9 4 9 6 -1 6 -7 1 -15 -6 -19 -15z"/>
<path d="M1940 4040 c-13 -9 -12 -12 5 -22 19 -11 19 -11 0 -19 -19 -7 -18 -8
3 -8 23 -1 31 22 11 35 -8 4 -7 9 2 15 8 5 10 9 4 9 -5 0 -17 -5 -25 -10z"/>
<path d="M2577 4043 c-12 -12 -7 -51 7 -56 8 -3 17 -3 20 0 10 10 7 33 -5 33
-5 0 -7 -4 -4 -10 3 -5 1 -10 -5 -10 -6 0 -10 8 -8 18 2 9 10 16 16 15 7 -2
12 2 12 7 0 11 -23 14 -33 3z"/>
<path d="M1870 4016 c0 -32 17 -34 23 -3 l4 22 2 -22 c0 -13 6 -23 12 -23 21
0 4 45 -18 48 -19 3 -23 -1 -23 -22z"/>
<path d="M1852 4010 c0 -14 2 -19 5 -12 2 6 2 18 0 25 -3 6 -5 1 -5 -13z"/>
<path d="M2620 4010 c0 -19 20 -27 33 -13 8 7 -11 33 -24 33 -5 0 -9 -9 -9
-20z"/>
<path d="M3004 4306 c-16 -12 -19 -29 -22 -124 -5 -165 -26 -152 252 -152 204
0 235 2 240 16 12 30 7 249 -6 262 -19 19 -438 17 -464 -2z m209 -91 c9 -8 13
-24 10 -35 -6 -24 -23 -17 -23 11 0 14 -7 19 -30 19 -26 0 -30 -4 -30 -26 0
-14 -4 -23 -10 -19 -5 3 -10 15 -10 25 0 36 65 54 93 25z m171 -1 c30 -29 17
-58 -31 -69 -21 -4 -33 -3 -33 4 0 6 11 11 24 11 24 0 41 23 30 41 -3 5 -16 9
-30 9 -13 0 -24 5 -24 10 0 16 47 12 64 -6z m-327 -41 c-4 -17 -4 -17 -12 0
-4 9 -4 25 0 35 8 16 8 16 12 0 3 -10 3 -26 0 -35z m389 -10 c-10 -10 -19 5
-10 18 6 11 8 11 12 0 2 -7 1 -15 -2 -18z m-389 -60 c-4 -17 -4 -17 -12 0 -4
9 -4 25 0 35 8 16 8 16 12 0 3 -10 3 -26 0 -35z m93 16 c0 -14 7 -19 25 -19
20 0 25 5 25 25 0 14 5 25 11 25 6 0 9 -14 7 -32 -3 -29 -7 -33 -34 -36 -35
-3 -70 28 -60 53 8 21 26 10 26 -16z m114 -30 c-3 -5 -10 -7 -15 -3 -5 3 -7
10 -3 15 3 5 10 7 15 3 5 -3 7 -10 3 -15z m121 1 c-3 -5 -19 -10 -35 -10 -16
0 -32 5 -35 10 -4 6 10 10 35 10 25 0 39 -4 35 -10z"/>
<path d="M2554 3367 c-50 -24 -94 -67 -94 -93 0 -19 17 -17 48 4 66 46 159 54
244 22 70 -27 90 -26 86 2 -2 14 -21 33 -50 51 -68 42 -163 48 -234 14z"/>
<path d="M1797 3360 c-39 -12 -97 -58 -97 -76 0 -18 26 -18 80 1 86 30 168 17
262 -43 20 -12 30 -14 38 -6 15 15 -29 67 -86 100 -49 29 -146 41 -197 24z"/>
<path d="M2570 3299 c-32 -13 -78 -56 -96 -91 -21 -41 -17 -117 9 -162 37 -65
67 -81 152 -81 87 0 118 17 153 85 33 65 30 80 -13 73 -39 -6 -75 16 -75 46 0
26 29 61 51 61 10 0 19 4 19 8 0 11 -39 46 -67 61 -26 13 -99 13 -133 0z"/>
<path d="M1825 3276 c-58 -26 -105 -101 -105 -169 0 -46 39 -118 79 -144 26
-17 48 -23 93 -23 92 0 139 32 163 113 15 50 11 61 -15 44 -14 -8 -25 -8 -45
1 -58 26 -45 112 17 112 l31 0 -22 24 c-50 53 -132 70 -196 42z"/>
<path d="M2763 2981 c-3 -12 -11 -17 -19 -14 -9 3 -14 -1 -14 -12 0 -9 4 -14
9 -10 5 3 12 1 16 -5 3 -5 0 -10 -7 -11 -7 0 0 -5 16 -9 37 -11 49 -4 41 23
-5 17 -4 19 4 7 6 -8 11 -11 11 -6 0 5 7 3 15 -4 16 -13 35 -6 35 15 0 16 -18
30 -28 20 -3 -3 0 -11 8 -16 13 -9 13 -10 0 -6 -8 2 -16 13 -18 25 -5 30 -61
32 -69 3z"/>
<path d="M1674 2964 c-18 -14 -18 -14 5 -3 21 10 23 9 18 -5 -5 -11 -1 -16 13
-16 11 0 20 -7 20 -15 0 -8 -5 -15 -11 -15 -5 0 -8 4 -5 9 3 5 -4 11 -17 15
-12 3 -23 1 -25 -4 -2 -5 -11 -7 -20 -4 -14 5 -13 3 2 -10 16 -12 22 -13 28
-3 6 9 8 9 8 0 0 -8 13 -13 31 -13 23 0 30 4 26 14 -3 8 2 16 14 19 17 4 18 3
8 -9 -7 -8 -7 -14 -1 -14 19 0 23 33 6 51 -21 23 -73 25 -100 3z m51 -4 c3 -5
1 -10 -4 -10 -6 0 -11 5 -11 10 0 6 2 10 4 10 3 0 8 -4 11 -10z"/>
<path d="M2645 2901 c-17 -15 -138 -50 -215 -62 -146 -22 -421 -3 -524 37 -17
6 -18 4 -12 -22 14 -60 60 -138 111 -189 158 -158 396 -158 550 -1 59 61 104
143 112 205 5 40 -3 51 -22 32z m-69 -130 c-11 -21 -31 -35 -68 -49 -29 -11
-60 -22 -68 -26 -18 -7 54 3 78 11 34 12 -44 -59 -93 -85 -43 -23 -62 -27
-140 -27 -73 0 -98 4 -136 23 -47 23 -138 98 -107 88 9 -2 34 -7 55 -11 33 -5
30 -3 -21 18 -54 21 -106 64 -106 88 0 6 8 8 18 5 109 -35 397 -31 547 7 58
14 66 6 41 -42z"/>
<path d="M2800 2390 c-12 -8 -11 -10 8 -10 12 0 22 5 22 10 0 13 -11 13 -30 0z"/>
<path d="M3530 2245 c0 -5 5 -17 10 -25 5 -8 10 -10 10 -5 0 6 -5 17 -10 25
-5 8 -10 11 -10 5z"/>
<path d="M3561 2180 c14 -30 59 -80 72 -80 6 0 -1 10 -14 23 -13 12 -34 36
-47 52 -20 25 -21 26 -11 5z"/>
<path d="M3142 2255 c0 -16 2 -22 5 -12 2 9 2 23 0 30 -3 6 -5 -1 -5 -18z"/>
<path d="M3250 2030 c8 -5 24 -9 35 -9 l20 0 -20 9 c-11 5 -27 9 -35 9 -13 1
-13 0 0 -9z"/>
<path d="M1650 2171 c0 -5 -8 -12 -17 -15 -11 -3 -8 -4 6 -3 24 2 44 27 22 27
-6 0 -11 -4 -11 -9z"/>
<path d="M2950 2170 c0 -5 -8 -7 -17 -3 -23 8 -15 -1 15 -16 19 -10 22 -9 22
9 0 11 -4 20 -10 20 -5 0 -10 -4 -10 -10z"/>
<path d="M4200 1437 c0 -2 7 -17 15 -34 8 -16 20 -77 25 -134 11 -113 38 -248
53 -264 5 -6 7 59 5 160 -3 187 -11 214 -68 255 -16 12 -30 19 -30 17z"/>
<path d="M1513 903 c13 -15 30 -20 65 -20 l47 0 -50 11 c-27 6 -57 15 -65 20
-10 6 -9 3 3 -11z"/>
<path d="M1658 873 c7 -3 16 -2 19 1 4 3 -2 6 -13 5 -11 0 -14 -3 -6 -6z"/>
</g>
</svg>
